# AST/ASF file generated using VICON BodyLanguage
# -----------------------------------------------
:version 1.10
:name VICON
:units
  mass 1.0
  length 0.45
  angle deg
:documentation
   .ast/.asf automatically generated from VICON data using
   VICON BodyBuilder and BodyLanguage model FoxedUp or BRILLIANT.MOD
:root
   order TX TY TZ RX RY RZ
   axis XYZ
   position 0 0 0  
   orientation 0 0 0 
:bonedata
  begin
     id 1 
     name lhipjoint
     direction 0.610259 -0.730986 0.305356 
     length 2.50941 
     axis 0 0 0  XYZ
  end
  begin
     id 2 
     name lfemur
     direction 0.34202 -0.939693 0  
     length 7.48822  
     axis 0 0 20  XYZ
    dof rx ry rz
    limits (-160.0 20.0)
           (-70.0 70.0)
           (-60.0 70.0)
  end
  begin
     id 3 
     name ltibia
     direction 0.34202 -0.939693 0   
     length 7.60141   
     axis 0 0 20   XYZ
    dof rx
    limits (-10.0 170.0)
  end
  begin
     id 4 
     name lfoot
     direction 0.0673488 -0.185039 0.980421   
     length 2.04049   
     axis -90 7.62852e-016 20   XYZ
    dof rx rz
    limits (-45.0 90.0)
           (-70.0 20.0)
  end
  begin
     id 5 
     name ltoes
     direction 1.5356e-011 -4.21729e-011 1   
     length 1.02897   
     axis -90 7.62852e-016 20   XYZ
    dof rx
    limits (-90.0 20.0)
  end
  begin
     id 6 
     name rhipjoint
     direction -0.57612 -0.754205 0.315056   
     length 2.43216  
     axis 0 0 0  XYZ 
  end
  begin
     id 7 
     name rfemur
     direction -0.34202 -0.939693 0   
     length 7.42799   
     axis 0 0 -20   XYZ
    dof rx ry rz
    limits (-160.0 20.0)
           (-70.0 70.0)
           (-70.0 60.0)
  end
  begin
     id 8 
     name rtibia
     direction -0.34202 -0.939693 0   
     length 7.69484   
     axis 0 0 -20   XYZ
    dof rx
    limits (-10.0 170.0)
 end
 begin
     id 9 
     name rfoot
     direction -0.111837 -0.30727 0.945028   
     length 2.15769  
     axis -90 -7.62852e-016 -20   XYZ
    dof rx rz
    limits (-45.0 90.0)
           (-20.0 70.0)
  end
  begin
     id 10 
     name rtoes
     direction -1.53539e-011 -4.21878e-011 1   
     length 1.07391   
     axis -90 -7.62852e-016 -20   XYZ
    dof rx
    limits (-90.0 20.0)
  end
  begin
     id 11 
     name lowerback
     direction 0.00552624 0.990109 -0.140195   
     length 2.12403   
     axis 0 0 0   XYZ
    dof rx ry rz
    limits (-20.0 45.0)
           (-30.0 30.0)
           (-30.0 30.0)
  end
  begin
     id 12 
     name upperback
     direction 0.00361898 0.999976 -0.00584723   
     length 2.13232   
     axis 0 0 0   XYZ
    dof rx ry rz
    limits (-20.0 45.0)
           (-30.0 30.0)
           (-30.0 30.0)
  end
  begin
     id 13 
     name thorax
     direction -0.000331275 0.998253 0.0590847   
     length 2.17688   
     axis 0 0 0   XYZ
    dof rx ry rz
    limits (-20.0 45.0)
           (-30.0 30.0)
           (-30.0 30.0)
  end
  begin
     id 14 
     name lowerneck
     direction -0.0561561 0.979832 0.19177   
     length 1.64159   
     axis 0 0 0   XYZ
    dof rx ry rz
    limits (-20.0 45.0)
           (-30.0 30.0)
           (-30.0 30.0)
  end
  begin
     id 15 
     name upperneck
     direction 0.0827153 0.979385 -0.184293   
     length 1.68939   
     axis 0 0 0   XYZ
    dof rx ry rz
    limits (-20.0 45.0)
           (-30.0 30.0)
           (-30.0 30.0)
  end
  begin
     id 16
     name head
     direction 0.0278583 0.995936 -0.0856488  
     length 1.70207  
     axis 0 0 0   XYZ
    dof rx ry rz
    limits (-20.0 45.0)
           (-30.0 30.0)
           (-30.0 30.0)
  end
  begin
     id 17 
     name lclavicle
     direction 0.950993 0.301131 -0.0702275  
     length 3.41652  
     axis 0 0 0   XYZ
    dof ry rz
    limits (-20.0 10.0)
           (0.0 20.0)
  end
  begin
     id 18 
     name lhumerus
     direction 1 -4.48981e-011 -3.9662e-029   
     length 5.32955   
     axis 180 -30 -90   XYZ
    dof rx ry rz
    limits (-60.0 90.0)
           (-90.0 90.0)
           (-90.0 90.0)
  end
  begin
     id 19
     name lradius
     direction 1 -4.48925e-011 -9.0549e-027   
     length 3.69232   
     axis 180 -30 -90   XYZ
    dof rx
    limits (-10.0 170.0)
  end
  begin
     id 20
     name lwrist
     direction 1 -4.49007e-011 -1.49005e-026   
     length 1.84616   
     axis 9.0955e-015 90 90   XYZ
    dof ry
    limits (-180.0 0.0)
 end
  begin
     id 21 
     name lhand
     direction 1 -4.49016e-011 -2.98023e-026   
     length 0.536598   
     axis 1.90115e-014 90 90   XYZ
    dof rx rz
    limits (-90.0 90.0)
           (-45.0 45.0)
  end
  begin
     id 22 
     name lfingers
     direction 1 -4.48924e-011 -5.9578e-026   
     length 0.432619   
     axis 3.80223e-014 90 90   XYZ
    dof rx
    limits (0.0 90.0)
  end
  begin
     id 23
     name lthumb
     direction 0.707107 -6.34947e-011 0.707107   
     length 0.621157   
     axis -90 45 -3.84942e-014   XYZ
    dof rx rz
    limits (-45.0 45.0)
           (-45.0 45.0)
  end
  begin
     id 24 
     name rclavicle
     direction -0.955495 0.276497 -0.102848   
     length 3.36357  
     axis 0 0 0   XYZ 
    dof ry rz
    limits (-10.0 20.0)
           (-20.0 0.0)
  end
  begin
     id 25 
     name rhumerus
     direction -1 -4.48961e-011 3.30983e-027  
     length 5.23431   
     axis 180 30 90   XYZ
    dof rx ry rz
    limits (-90.0 60.0)
           (-90.0 90.0)
           (-90.0 90.0)
  end
  begin
     id 26 
     name rradius
     direction -1 -4.48965e-011 -6.63263e-027   
     length 3.55301   
     axis 180 30 90   XYZ
    dof rx
    limits (-10.0 170.0)
  end
  begin
     id 27 
     name rwrist
     direction -1 -4.48942e-011 -1.48958e-026   
     length 1.77651   
     axis 9.0955e-015 -90 -90   XYZ
    dof ry
    limits (-180.0 0.0)
  end
  begin
     id 28
     name rhand
     direction -1 -4.48977e-011 -2.97966e-026   
     length 0.772522   
     axis 1.90115e-014 -90 -90   XYZ
    dof rx rz
    limits (-90.0 90.0)
           (-45.0 45.0)
  end
  begin
     id 29
     name rfingers
     direction -1 -4.49135e-011 -5.96389e-026   
     length 0.622827   
     axis 3.80223e-014 -90 -90   XYZ
    dof rx
    limits (0.0 90.0)
  end
  begin
     id 30
     name rthumb
     direction -0.707107 -6.34969e-011 0.707107   
     length 0.894259   
     axis -90 -45 3.84942e-014   XYZ
    dof rx rz
    limits (-45.0 45.0)
           (-45.0 45.0)
  end
:hierarchy
  begin
    root lhipjoint rhipjoint lowerback
    lhipjoint lfemur
    lfemur ltibia
    ltibia lfoot
    lfoot ltoes
    rhipjoint rfemur
    rfemur rtibia
    rtibia rfoot
    rfoot rtoes
    lowerback upperback
    upperback thorax
    thorax lowerneck lclavicle rclavicle
    lowerneck upperneck
    upperneck head
    lclavicle lhumerus
    lhumerus lradius
    lradius lwrist
    lwrist lhand lthumb
    lhand lfingers
    rclavicle rhumerus
    rhumerus rradius
    rradius rwrist
    rwrist rhand rthumb
    rhand rfingers
  end

#!OML:ASF F:\VICON\USERDATA\INSTALL\rory3\rory3.ASF
:FULLY-SPECIFIED
:DEGREES
48
root 15.4782 17.9444 -10.7917 1.26709 -45.2314 3.14313
lowerback 4.83902 0.572416 -1.90459
upperback -2.0832 0.655717 0.50311
thorax -4.90006 0.393407 1.53099
lowerneck -22.0652 -4.27841 -10.2008
upperneck 23.966 -4.4781 6.82802
head 11.9305 -2.09791 3.51477
rclavicle -2.55563e-014 -7.95139e-015
rhumerus -33.5022 -9.20252 -82.567
rradius 29.0116
rwrist 9.87256
rhand -14.21 10.7548
rfingers 7.12502
rthumb 11.9266 -18.8855
lclavicle -2.55563e-014 -7.95139e-015
lhumerus -36.7675 5.40138 85.3701
lradius 30.8828
lwrist -9.31146
lhand -16.0564 24.8584
lfingers 7.12502
lthumb 10.1458 54.5938
rfemur -11.1466 3.97494 22.4192
rtibia 34.3483
rfoot -21.44 -6.19115
rtoes -1.60998
lfemur -5.82668 -3.60363 -24.7182
ltibia 22.7968
lfoot -14.109 4.42374
ltoes -2.82482
49
root 15.4777 17.9399 -10.8023 0.961939 -45.211 3.69974
lowerback 4.81151 0.583294 -2.33869
upperback -2.11017 0.635314 0.383787
thorax -4.9162 0.395467 1.65305
lowerneck -22.0718 -4.26285 -10.1046
upperneck 24.0539 -4.45959 6.70714
head 11.9582 -2.09762 3.45733
rclavicle 7.56624e-015 4.77083e-015
rhumerus -33.5051 -9.0083 -82.7163
rradius 29.1365
rwrist 9.60322
rhand -14.2051 10.7069
rfingers 7.12502
rthumb 11.9313 -18.933
lclavicle 7.56624e-015 4.77083e-015
lhumerus -36.7604 5.27515 85.3804
lradius 30.8951
lwrist -9.16329
lhand -15.9885 24.8343
lfingers 7.12502
lthumb 10.2113 54.5665
rfemur -11.3949 4.15537 22.016
rtibia 34.5827
rfoot -21.5464 -6.46416
rtoes -1.57924
lfemur -5.9395 -3.31233 -25.088
ltibia 22.7501
lfoot -14.1829 4.08175
ltoes -3.22314
50
root 15.4795 17.934 -10.8122 0.759591 -45.2399 3.88196
lowerback 4.95253 0.602238 -2.46666
upperback -2.08404 0.645549 0.320128
thorax -4.97064 0.403957 1.65699
lowerneck -22.0332 -4.25355 -9.96947
upperneck 24.0773 -4.45032 6.53508
head 11.9507 -2.10428 3.3709
rclavicle -5.45912e-014 -6.75868e-015
rhumerus -33.5071 -8.97927 -82.7983
rradius 29.2251
rwrist 9.55198
rhand -14.0591 10.852
rfingers 7.12502
rthumb 12.0721 -18.7797
lclavicle -5.45912e-014 -6.75868e-015
lhumerus -36.7661 5.14273 85.3597
lradius 30.9545
lwrist -8.97208
lhand -15.8774 24.7914
lfingers 7.12502
lthumb 10.3184 54.5183
rfemur -11.5118 4.2591 21.9066
rtibia 34.9028
rfoot -21.6698 -6.56192
rtoes -1.43299
lfemur -5.82361 -2.9963 -25.1719
ltibia 22.5944
lfoot -14.254 3.7481
ltoes -3.39648
51
root 15.4807 17.9292 -10.8215 0.700685 -45.2173 3.88855
lowerback 5.09418 0.604555 -2.44868
upperback -2.05788 0.644656 0.280404
thorax -5.0231 0.402644 1.60478
lowerneck -21.9634 -4.23974 -9.9402
upperneck 24.0092 -4.44786 6.54447
head 11.9099 -2.09946 3.36892
rclavicle 1.83876e-014 1.59028e-015
rhumerus -33.4895 -9.02575 -82.8683
rradius 29.2805
rwrist 9.55331
rhand -14.0469 10.8954
rfingers 7.12502
rthumb 12.0838 -18.7357
lclavicle 1.83876e-014 1.59028e-015
lhumerus -36.6631 4.94056 85.3607
lradius 30.8952
lwrist -8.73413
lhand -16.0666 24.6852
lfingers 7.12502
lthumb 10.1359 54.4211
rfemur -11.6035 4.14187 21.9236
rtibia 35.1261
rfoot -21.7475 -6.51019
rtoes -1.67492
lfemur -5.80328 -2.72405 -25.119
ltibia 22.5911
lfoot -14.3731 3.43403
ltoes -3.49437
52
root 15.4819 17.9263 -10.8283 0.692633 -45.2224 3.8567
lowerback 5.2147 0.629923 -2.38761
upperback -2.0449 0.678173 0.2429
thorax -5.07831 0.417135 1.52744
lowerneck -21.8471 -4.25114 -10.0177
upperneck 23.8833 -4.49887 6.73786
head 11.8505 -2.10486 3.44503
rclavicle 2.65253e-014 -3.57812e-015
rhumerus -33.458 -9.15925 -82.8955
rradius 29.2795
rwrist 9.54041
rhand -14.0398 10.851
rfingers 7.12502
rthumb 12.0907 -18.7797
lclavicle 2.65253e-014 -3.57812e-015
lhumerus -36.6376 4.8892 85.2955
lradius 30.8983
lwrist -8.77546
lhand -16.2981 24.3041
lfingers 7.12502
lthumb 9.91254 54.0507
rfemur -11.6984 4.09035 21.9643
rtibia 35.3243
rfoot -21.8275 -6.41646
rtoes -1.22858
lfemur -5.80616 -2.59111 -25.0607
ltibia 22.6247
lfoot -14.4545 3.34264
ltoes -3.70026
53
root 15.4823 17.9237 -10.8331 0.578844 -45.2096 3.96134
lowerback 5.31438 0.635739 -2.46745
upperback -2.02402 0.67704 0.228559
thorax -5.11416 0.419154 1.55677
lowerneck -21.7841 -4.22109 -10.0232
upperneck 23.8481 -4.47105 6.77861
head 11.823 -2.08838 3.4658
rclavicle -6.04554e-014 1.11319e-014
rhumerus -33.4551 -9.22479 -82.8831
rradius 29.327
rwrist 9.57946
rhand -14.0783 10.8917
rfingers 7.12502
rthumb 12.0536 -18.7411
lclavicle -6.04554e-014 1.11319e-014
lhumerus -36.682 4.61225 85.4169
lradius 31.0089
lwrist -8.4061
lhand -16.6645 24.1679
lfingers 7.12502
lthumb 9.55902 53.9311
rfemur -11.7854 4.05711 21.9119
rtibia 35.528
rfoot -21.9248 -6.47606
rtoes -1.01784
lfemur -5.78613 -2.50102 -25.1156
ltibia 22.6458
lfoot -14.4798 3.35522
ltoes -3.83614
54
root 15.4811 17.9193 -10.837 0.292317 -45.1764 4.22873
lowerback 5.44328 0.6188 -2.66013
upperback -1.98304 0.635332 0.194829
thorax -5.14505 0.404176 1.63324
lowerneck -21.8649 -4.18695 -10.0692
upperneck 24.0254 -4.40927 6.78539
head 11.9024 -2.06542 3.49027
rclavicle 2.1096e-014 3.18055e-015
rhumerus -33.3882 -9.32465 -82.8276
rradius 29.2552
rwrist 9.82849
rhand -14.0369 11.1027
rfingers 7.12502
rthumb 12.0935 -18.5278
lclavicle 2.1096e-014 3.18055e-015
lhumerus -36.6856 4.53804 85.4788
lradius 31.0642
lwrist -8.10823
lhand -17.0477 24.1809
lfingers 7.12502
lthumb 9.18928 53.9607
rfemur -11.8116 4.00472 21.7315
rtibia 35.7634
rfoot -21.994 -6.58541
rtoes -1.2509
lfemur -5.68245 -2.34165 -25.3003
ltibia 22.6236
lfoot -14.4672 3.3808
ltoes -4.31691
55
root 15.4794 17.9129 -10.8419 0.076251 -45.1591 4.4629
lowerback 5.49987 0.599829 -2.83198
upperback -1.95177 0.594504 0.169467
thorax -5.14458 0.388778 1.70721
lowerneck -21.8971 -4.18809 -10.078
upperneck 24.1775 -4.3866 6.69449
head 11.9634 -2.06981 3.46396
rclavicle -1.81764e-014 -1.59028e-015
rhumerus -33.3436 -9.35359 -82.7672
rradius 29.1958
rwrist 10.0658
rhand -13.9969 11.3378
rfingers 7.12502
rthumb 12.1321 -18.2904
lclavicle -1.81764e-014 -1.59028e-015
lhumerus -36.7694 4.77223 85.4136
lradius 31.2196
lwrist -8.15487
lhand -17.2337 24.1742
lfingers 7.12502
lthumb 9.00983 53.9618
rfemur -11.8741 4.11792 21.5829
rtibia 36.001
rfoot -22.1032 -6.73924
rtoes -1.10692
lfemur -5.62273 -2.21086 -25.4532
ltibia 22.5967
lfoot -14.5205 3.28603
ltoes -4.23714
56
root 15.4761 17.9056 -10.8479 -0.18449 -45.1635 4.76617
lowerback 5.56192 0.607188 -3.06365
upperback -1.92677 0.582662 0.121887
thorax -5.15574 0.389444 1.78877
lowerneck -21.9143 -4.17562 -10.0495
upperneck 24.2824 -4.36476 6.63151
head 12.003 -2.06703 3.44099
rclavicle -8.1216e-014 -1.98785e-015
rhumerus -33.3185 -9.27671 -82.7692
rradius 29.1783
rwrist 10.0977
rhand -13.917 11.4298
rfingers 7.12502
rthumb 12.2091 -18.1938
lclavicle -8.1216e-014 -1.98785e-015
lhumerus -36.8029 4.9065 85.3718
lradius 31.2732
lwrist -8.18011
lhand -17.3916 24.172
lfingers 7.12502
lthumb 8.85742 53.9661
rfemur -11.9435 4.15815 21.3704
rtibia 36.2416
rfoot -22.2906 -6.73399
rtoes -0.942632
lfemur -5.56855 -2.07627 -25.663
ltibia 22.5731
lfoot -14.5358 3.19224
ltoes -4.76357
57
root 15.4751 17.9013 -10.8568 -0.341956 -45.0699 4.9396
lowerback 5.68249 0.618282 -3.18357
upperback -1.90813 0.582355 0.0838255
thorax -5.20609 0.393018 1.81583
lowerneck -21.809 -4.17898 -10.1534
upperneck 24.2339 -4.37387 6.74097
head 11.97 -2.06795 3.49824
rclavicle 7.6706e-014 -1.19271e-015
rhumerus -33.3304 -9.30031 -82.7735
rradius 29.2263
rwrist 10.0649
rhand -13.939 11.4356
rfingers 7.12502
rthumb 12.1879 -18.1893
lclavicle 7.6706e-014 -1.19271e-015
lhumerus -36.7611 4.74285 85.398
lradius 31.2279
lwrist -8.0287
lhand -17.4433 24.0019
lfingers 7.12502
lthumb 8.80756 53.7982
rfemur -12.0091 4.12874 21.2716
rtibia 36.4485
rfoot -22.4137 -6.75071
rtoes -0.739025
lfemur -5.55421 -1.96285 -25.7468
ltibia 22.572
lfoot -14.5611 2.98239
ltoes -4.73749
